<?xml version="1.0" ?><!DOCTYPE svg  PUBLIC '-//W3C//DTD SVG 1.1//EN'  'http://www.w3.org/Graphics/SVG/1.1/DTD/svg11.dtd'><svg height="100%" style="fill-rule:evenodd;clip-rule:evenodd;stroke-linejoin:round;stroke-miterlimit:2;" version="1.1" viewBox="0 0 32 32" width="100%" xml:space="preserve" xmlns="http://www.w3.org/2000/svg" xmlns:serif="http://www.serif.com/" xmlns:xlink="http://www.w3.org/1999/xlink"><path d="M13.929,20.156l-6.095,-0.677l0,0c-0.62,-0.069 -1.133,-0.515 -1.287,-1.119c-0.155,-0.605 0.081,-1.242 0.593,-1.6c3.78,-2.646 11.538,-8.077 15.454,-10.818c0.524,-0.367 1.223,-0.361 1.741,0.014c0.518,0.376 0.741,1.039 0.554,1.651c-1.385,4.552 -4.119,13.534 -5.426,17.83c-0.179,0.587 -0.697,1.006 -1.309,1.058c-0.612,0.051 -1.193,-0.275 -1.468,-0.824l-2.757,-5.515Zm-5.984,-1.671c-0.207,-0.023 -0.378,-0.171 -0.429,-0.373c-0.052,-0.201 0.027,-0.414 0.197,-0.533c3.78,-2.646 11.538,-8.077 15.455,-10.818c0.174,-0.123 0.407,-0.121 0.58,0.005c0.173,0.125 0.247,0.346 0.185,0.55c-1.386,4.552 -4.119,13.534 -5.427,17.83c-0.059,0.195 -0.232,0.335 -0.436,0.352c-0.204,0.017 -0.398,-0.091 -0.489,-0.274c-1.184,-2.367 -2.879,-5.758 -2.879,-5.758c-0.076,-0.152 -0.224,-0.255 -0.392,-0.273l-6.365,-0.708Z"/><path d="M18.851,12.576l-5,6.818c-0.163,0.222 -0.115,0.536 0.108,0.699c0.223,0.163 0.536,0.115 0.699,-0.108l5,-6.818c0.163,-0.223 0.115,-0.536 -0.108,-0.699c-0.222,-0.163 -0.535,-0.115 -0.699,0.108Z"/></svg>